<?xml version="1.0" encoding="UTF-8" standalone="no"?>
<svg
   xmlns:ns0="&amp;#38;ns_sfw;"
   xmlns:dc="http://purl.org/dc/elements/1.1/"
   xmlns:cc="http://creativecommons.org/ns#"
   xmlns:rdf="http://www.w3.org/1999/02/22-rdf-syntax-ns#"
   xmlns:svg="http://www.w3.org/2000/svg"
   xmlns="http://www.w3.org/2000/svg"
   xmlns:sodipodi="http://sodipodi.sourceforge.net/DTD/sodipodi-0.dtd"
   xmlns:inkscape="http://www.inkscape.org/namespaces/inkscape"
   version="1.2"
   id="vial_stroke_dark"
   x="0px"
   y="0px"
   width="69.999641"
   height="140.00101"
   viewBox="0 0 69.999641 140.00101"
   xml:space="preserve"
   sodipodi:docname="vial_stroke_dark.svg"
   inkscape:version="1.0.1 (c497b03c, 2020-09-10)"><defs
   id="defs52" /><sodipodi:namedview
   pagecolor="#ffffff"
   bordercolor="#666666"
   borderopacity="1"
   objecttolerance="10"
   gridtolerance="10"
   guidetolerance="10"
   inkscape:pageopacity="0"
   inkscape:pageshadow="2"
   inkscape:window-width="1207"
   inkscape:window-height="924"
   id="namedview50"
   showgrid="false"
   fit-margin-top="0"
   fit-margin-left="0"
   fit-margin-right="0"
   fit-margin-bottom="0"
   inkscape:zoom="18.502672"
   inkscape:cx="62.263432"
   inkscape:cy="56.132957"
   inkscape:window-x="0"
   inkscape:window-y="25"
   inkscape:window-maximized="0"
   inkscape:current-layer="vial_stroke_dark"
   inkscape:document-rotation="0" />
<metadata
   id="metadata43">
	<ns0:sfw>
		<ns0:slices />
		<ns0:sliceSourceBounds
   x="0"
   y="0"
   height="140"
   width="70"
   bottomLeftOrigin="true" />
	</ns0:sfw>
<rdf:RDF><cc:Work
     rdf:about=""><dc:format>image/svg+xml</dc:format><dc:type
       rdf:resource="http://purl.org/dc/dcmitype/StillImage" /><dc:title /></cc:Work></rdf:RDF></metadata>
<line
   id="vial_shadow"
   fill="none"
   stroke="#4d4d4d"
   stroke-width="5"
   x1="15.702068"
   y1="23.463999"
   x2="54.921066"
   y2="23.463999" />
<g
   id="vial_stroke_dark_outline"
   transform="translate(31.498068,62.928)">
	<path
   fill="none"
   stroke="#cccccc"
   stroke-width="5"
   stroke-linejoin="round"
   d="m 31.849,-16.325 c -5.671,-6.463 -9.063,-9.255 -9.063,-14.984 v -8.147 l 5.868,-2.495 v -16.262 c 0,0 -6.352,-1.069 -12.092,-1.575 -5.749,-0.492 -7.493,-0.64 -13.059,-0.64 -5.581,0 -7.333,0.156 -13.057,0.64 -5.765,0.506 -12.119,1.575 -12.119,1.575 v 16.254 l 5.859,2.496 v 8.139 c 0,5.737 -3.383,8.529 -9.044,14.992 -4.252,4.88 -4.14,9.543 -4.14,9.543 v 69.628 c 0,0 -0.048,6.479 3.679,8.382 3.726,1.91 20.955,3.352 28.821,3.352 7.866,0 25.097,-1.441 28.822,-3.352 3.724,-1.895 3.677,-8.382 3.677,-8.382 V -6.79 c -0.215185,-1.4592487 0.129,-4.663 -4.152,-9.535 z"
   id="path46"
   sodipodi:nodetypes="csccccsccccsccccscccc" />
</g>
</svg>
