<?xml version="1.0" encoding="UTF-8" standalone="no"?>
<svg
   xmlns:ns="&amp;ns_sfw;"
   xmlns:dc="http://purl.org/dc/elements/1.1/"
   xmlns:cc="http://creativecommons.org/ns#"
   xmlns:rdf="http://www.w3.org/1999/02/22-rdf-syntax-ns#"
   xmlns:svg="http://www.w3.org/2000/svg"
   xmlns="http://www.w3.org/2000/svg"
   xmlns:sodipodi="http://sodipodi.sourceforge.net/DTD/sodipodi-0.dtd"
   xmlns:inkscape="http://www.inkscape.org/namespaces/inkscape"
   version="1.2"
   id="vial_dark"
   x="0px"
   y="0px"
   width="68.779999"
   height="140.27557"
   viewBox="0 0 68.779999 140.27557"
   xml:space="preserve"
   sodipodi:docname="vial_dark.svg"
   inkscape:version="1.0.1 (c497b03c, 2020-09-10)"><defs
   id="defs65" /><sodipodi:namedview
   pagecolor="#ffffff"
   bordercolor="#666666"
   borderopacity="1"
   objecttolerance="10"
   gridtolerance="10"
   guidetolerance="10"
   inkscape:pageopacity="0"
   inkscape:pageshadow="2"
   inkscape:window-width="1615"
   inkscape:window-height="1276"
   id="namedview63"
   showgrid="false"
   fit-margin-top="0"
   fit-margin-left="0"
   fit-margin-right="0"
   fit-margin-bottom="0"
   inkscape:zoom="3.8344284"
   inkscape:cx="11.965123"
   inkscape:cy="72.234648"
   inkscape:window-x="0"
   inkscape:window-y="25"
   inkscape:window-maximized="0"
   inkscape:current-layer="vial_dark" />
<metadata
   id="metadata48">
	<ns:sfw>
		<ns:slices />
		<ns:sliceSourceBounds
   x="-3.4"
   y="-7.034"
   height="14.027"
   width="6.879"
   bottomLeftOrigin="true" />
	</ns:sfw>
<rdf:RDF><cc:Work
     rdf:about=""><dc:format>image/svg+xml</dc:format><dc:type
       rdf:resource="http://purl.org/dc/dcmitype/StillImage" /><dc:title></dc:title></cc:Work></rdf:RDF></metadata>
<g
   id="vail_dark_background"
   transform="matrix(9.9996845,0,0,9.9996845,-0.99989309,-0.06999779)">
	<path
   fill="#666666"
   d="M 6.321,4.677 C 5.763,4.029 5.431,3.749 5.431,3.175 c 0,-0.576 0,-0.816 0,-0.816 l 0.576,-0.25 v -1.63 c 0,0 -0.623,-0.107 -1.186,-0.158 C 4.256,0.272 4.085,0.257 3.539,0.257 2.991,0.257 2.82,0.273 2.256,0.321 1.692,0.372 1.069,0.479 1.069,0.479 v 1.629 l 0.575,0.25 c 0,0 0,0.24 0,0.816 0,0.574 -0.332,0.854 -0.888,1.502 C 0.339,5.165 0.35,5.632 0.35,5.632 v 6.977 c 0,0 -0.005,0.65 0.361,0.84 0.365,0.191 2.056,0.336 2.828,0.336 0.772,0 2.463,-0.145 2.828,-0.336 0.365,-0.189 0.361,-0.84 0.361,-0.84 V 5.632 c 0.001,0 0.012,-0.467 -0.407,-0.955 z"
   id="path50" />
</g>

<line
   id="vail_dark_shadow"
   fill="#f2f2f2"
   stroke="#4d4d4d"
   stroke-width="4.99984"
   x1="15.449588"
   y1="23.509258"
   x2="53.938374"
   y2="23.509258" />
<g
   id="vail_dark_stroke"
   transform="matrix(9.9996845,0,0,9.9996845,-0.99989309,-0.06999779)">
	<path
   fill="none"
   stroke="#cccccc"
   stroke-width="0.5"
   stroke-linejoin="round"
   d="M 6.321,4.677 C 5.763,4.029 5.431,3.749 5.431,3.175 c 0,-0.576 0,-0.816 0,-0.816 l 0.576,-0.25 v -1.63 c 0,0 -0.623,-0.107 -1.186,-0.158 C 4.256,0.272 4.085,0.257 3.539,0.257 2.991,0.257 2.82,0.273 2.258,0.321 1.692,0.372 1.069,0.479 1.069,0.479 v 1.629 l 0.575,0.25 c 0,0 0,0.24 0,0.816 0,0.574 -0.332,0.854 -0.888,1.502 C 0.339,5.165 0.35,5.632 0.35,5.632 v 6.977 c 0,0 -0.005,0.65 0.361,0.84 0.365,0.191 2.056,0.336 2.828,0.336 0.772,0 2.463,-0.145 2.828,-0.336 0.365,-0.189 0.361,-0.84 0.361,-0.84 V 5.632 c 0.001,0 0.012,-0.467 -0.407,-0.955 z"
   id="path59" />
</g>
</svg>
