<?xml version="1.0" encoding="UTF-8" standalone="no"?>
<svg
   xmlns:ns="&amp;#38;ns_sfw;"
   xmlns:dc="http://purl.org/dc/elements/1.1/"
   xmlns:cc="http://creativecommons.org/ns#"
   xmlns:rdf="http://www.w3.org/1999/02/22-rdf-syntax-ns#"
   xmlns:svg="http://www.w3.org/2000/svg"
   xmlns="http://www.w3.org/2000/svg"
   xmlns:sodipodi="http://sodipodi.sourceforge.net/DTD/sodipodi-0.dtd"
   xmlns:inkscape="http://www.inkscape.org/namespaces/inkscape"
   version="1.2"
   id="vial_light"
   x="0px"
   y="0px"
   width="68.779999"
   height="140.27557"
   viewBox="0 0 68.779999 140.27557"
   xml:space="preserve"
   sodipodi:docname="vial_light.svg"
   inkscape:version="1.0.1 (c497b03c, 2020-09-10)"><defs
   id="defs27">
	
</defs><sodipodi:namedview
   pagecolor="#ffffff"
   bordercolor="#666666"
   borderopacity="1"
   objecttolerance="10"
   gridtolerance="10"
   guidetolerance="10"
   inkscape:pageopacity="0"
   inkscape:pageshadow="2"
   inkscape:window-width="1471"
   inkscape:window-height="1190"
   id="namedview25"
   showgrid="false"
   fit-margin-top="0"
   fit-margin-left="0"
   fit-margin-right="0"
   fit-margin-bottom="0"
   inkscape:zoom="5.1422079"
   inkscape:cx="16.447199"
   inkscape:cy="96.009109"
   inkscape:window-x="325"
   inkscape:window-y="80"
   inkscape:window-maximized="0"
   inkscape:current-layer="vial_light"
   inkscape:document-rotation="0" />
<metadata
   id="metadata10">
	<ns:sfw>
		<ns:slices />
		<ns:sliceSourceBounds
   x="-3.4"
   y="-7.034"
   height="14.027"
   width="6.879"
   bottomLeftOrigin="true" />
	</ns:sfw>
<rdf:RDF><cc:Work
     rdf:about=""><dc:format>image/svg+xml</dc:format><dc:type
       rdf:resource="http://purl.org/dc/dcmitype/StillImage" /><dc:title /></cc:Work></rdf:RDF></metadata>
<g
   id="vail_light_background"
   transform="matrix(9.9996845,0,0,9.9996845,-0.99989309,-0.06999779)">
	<path
   fill="#f2f2f2"
   d="M 6.321,4.677 C 5.763,4.029 5.431,3.749 5.431,3.175 c 0,-0.576 0,-0.816 0,-0.816 l 0.576,-0.25 v -1.63 c 0,0 -0.623,-0.107 -1.186,-0.158 C 4.256,0.272 4.085,0.257 3.539,0.257 2.991,0.257 2.82,0.273 2.256,0.321 1.692,0.372 1.069,0.479 1.069,0.479 v 1.629 l 0.575,0.25 c 0,0 0,0.24 0,0.816 0,0.574 -0.332,0.854 -0.888,1.502 C 0.339,5.165 0.35,5.632 0.35,5.632 v 6.977 c 0,0 -0.005,0.65 0.361,0.84 0.365,0.191 2.056,0.336 2.828,0.336 0.772,0 2.463,-0.145 2.828,-0.336 0.365,-0.189 0.361,-0.84 0.361,-0.84 V 5.632 c 0.001,0 0.012,-0.467 -0.407,-0.955 z"
   id="path12"
   style="stroke-width:1.00003155;stroke-miterlimit:4;stroke-dasharray:none" />
</g>

<line
   id="vail_light_shadow"
   fill="#f2f2f2"
   stroke="#4d4d4d"
   stroke-width="4.99984"
   x1="15.449588"
   y1="23.509258"
   x2="53.938374"
   y2="23.509258" />
<path
   fill="none"
   stroke="#333333"
   stroke-width="4.99984"
   stroke-linejoin="round"
   d="M 62.208113,46.698527 C 56.628289,40.218731 53.308393,37.418819 53.308393,31.679 v -8.159742 l 5.759819,-2.499921 V 4.7198511 c 0,0 -6.229804,-1.0699663 -11.859626,-1.5799502 C 41.558764,2.6499164 39.848818,2.4999211 34.38899,2.4999211 c -5.479827,0 -7.189773,0.159995 -12.809595,0.6399798 C 15.919573,3.6498848 9.6897696,4.7198511 9.6897696,4.7198511 V 21.009337 l 5.7498184,2.499921 v 8.159743 c 0,5.739819 -3.319895,8.53973 -8.8797196,15.019526 C 2.39,51.578373 2.4999965,56.248225 2.4999965,56.248225 v 69.767795 c 0,0 -0.049998,6.4998 3.6098861,8.39974 3.6498848,1.90994 20.5593514,3.35989 28.2791074,3.35989 7.719757,0 24.629223,-1.44995 28.279108,-3.35989 3.649885,-1.88994 3.609886,-8.39974 3.609886,-8.39974 V 56.248225 c -0.03797,0.767579 0.119996,-4.669852 -4.069871,-9.549698 z"
   id="path21"
   sodipodi:nodetypes="csccccsccccsccccscccc"
   style="stroke-linecap:round" />
</svg>
