<?xml version="1.0" encoding="utf-8"?>
<!-- Generator: Adobe Illustrator 14.0.0, SVG Export Plug-In . SVG Version: 6.00 Build 43363)  -->
<!DOCTYPE svg [
	<!ENTITY ns_extend "http://ns.adobe.com/Extensibility/1.0/">
	<!ENTITY ns_ai "http://ns.adobe.com/AdobeIllustrator/10.0/">
	<!ENTITY ns_graphs "http://ns.adobe.com/Graphs/1.0/">
	<!ENTITY ns_vars "http://ns.adobe.com/Variables/1.0/">
	<!ENTITY ns_imrep "http://ns.adobe.com/ImageReplacement/1.0/">
	<!ENTITY ns_sfw "http://ns.adobe.com/SaveForWeb/1.0/">
	<!ENTITY ns_custom "http://ns.adobe.com/GenericCustomNamespace/1.0/">
	<!ENTITY ns_adobe_xpath "http://ns.adobe.com/XPath/1.0/">
]>
<svg version="1.2" baseProfile="tiny" id="vial_stroke_light" xmlns:x="&ns_extend;" xmlns:i="&ns_ai;" xmlns:graph="&ns_graphs;"
	 xmlns="http://www.w3.org/2000/svg" xmlns:xlink="http://www.w3.org/1999/xlink" x="0px" y="0px" width="70px" height="140px"
	 viewBox="-31.461 -62.977 70 140" xml:space="preserve">
<metadata>
	<sfw  xmlns="&ns_sfw;">
		<slices></slices>
		<sliceSourceBounds  x="-22.519" y="-57.592" height="140.042" width="70.042" bottomLeftOrigin="true"></sliceSourceBounds>
	</sfw>
</metadata>
<line id="vail_stroke_shadow" fill="none" stroke="#4D4D4D" stroke-width="5" x1="-15.796" y1="-39.464" x2="23.423" y2="-39.464"/>
<g id="vail_stroke_light_outline">
	<path fill="none" stroke="#333333" stroke-width="5.0423" stroke-linejoin="round" d="M31.849-16.325
		c-5.671-6.463-9.063-9.255-9.063-14.984c0-5.746,0-8.147,0-8.147l5.868-2.495v-16.262c0,0-6.352-1.069-12.092-1.575
		c-5.749-0.492-7.493-0.64-13.059-0.64c-5.581,0-7.333,0.156-13.057,0.64c-5.765,0.506-12.119,1.575-12.119,1.575v16.254
		l5.859,2.496c0,0,0,2.4,0,8.139c0,5.737-3.383,8.529-9.044,14.992c-4.252,4.88-4.14,9.543-4.14,9.543v69.628
		c0,0-0.048,6.479,3.679,8.382c3.726,1.91,20.955,3.352,28.821,3.352c7.866,0,25.097-1.441,28.822-3.352
		c3.724-1.895,3.677-8.382,3.677-8.382V-6.79C36.002-6.79,36.13-11.453,31.849-16.325z"/>
</g>
</svg>
